# xmcd
#
# Track frame offsets: 
#        183
#        13945
#        47645
#        78600
#        95883
#        111070
#        139430
#        153058
#
# Disc length: 2335 seconds
#
# Revision: 3
# Processed by: cddbd v1.5.2PL0 Copyright (c) Steve Scherf et al.
# Submitted via: ExactAudioCopy v0.95b4
#
DISCID=67091d08
DTITLE=Burdon, Eric - Starportrait - CD 1
DYEAR=1900
DGENRE=Rock
TTITLE0=Good times 
TTITLE1=Sky pilot
TTITLE2=We love you Lil
TTITLE3=Hey gyp
TTITLE4=San Franciscan nights
TTITLE5=Paint it black
TTITLE6=When I was young
TTITLE7=Ring of fire
EXTD=
EXTT0=
EXTT1=
EXTT2=
EXTT3=
EXTT4=
EXTT5=
EXTT6=
EXTT7=
PLAYORDER=
